<svg width="45" height="38" viewBox="0 0 45 38" fill="none" xmlns="http://www.w3.org/2000/svg">
    <mask id="path-1-inside-1_6_771" fill="white">
    <path d="M0.789551 8C0.789551 3.58172 4.37127 0 8.78955 0H36.9328C41.3511 0 44.9328 3.58172 44.9328 8V30C44.9328 34.4183 41.3511 38 36.9328 38H8.78955C4.37127 38 0.789551 34.4183 0.789551 30V8Z"/>
    </mask>
    <path d="M0.789551 8C0.789551 3.58172 4.37127 0 8.78955 0H36.9328C41.3511 0 44.9328 3.58172 44.9328 8V30C44.9328 34.4183 41.3511 38 36.9328 38H8.78955C4.37127 38 0.789551 34.4183 0.789551 30V8Z" fill="#CFF7D3"/>
    <path d="M8.78955 1H36.9328V-1H8.78955V1ZM43.9328 8V30H45.9328V8H43.9328ZM36.9328 37H8.78955V39H36.9328V37ZM1.78955 30V8H-0.210449V30H1.78955ZM8.78955 37C4.92355 37 1.78955 33.866 1.78955 30H-0.210449C-0.210449 34.9706 3.81898 39 8.78955 39V37ZM43.9328 30C43.9328 33.866 40.7988 37 36.9328 37V39C41.9034 39 45.9328 34.9706 45.9328 30H43.9328ZM36.9328 1C40.7988 1 43.9328 4.13401 43.9328 8H45.9328C45.9328 3.02944 41.9034 -1 36.9328 -1V1ZM8.78955 -1C3.81899 -1 -0.210449 3.02944 -0.210449 8H1.78955C1.78955 4.13401 4.92356 1 8.78955 1V-1Z" fill="#2C2C2C" mask="url(#path-1-inside-1_6_771)"/>
    <path d="M23.4635 25L22.5885 24.1364L26.1907 20.5341H16.8612V19.2841H26.1907L22.5885 15.6932L23.4635 14.8182L28.5544 19.9091L23.4635 25Z" fill="#2C2C2C"/>
    </svg>
    