<svg width="46" height="39" viewBox="0 0 46 39" fill="none" xmlns="http://www.w3.org/2000/svg">
    <mask id="path-1-inside-1_72_159" fill="white">
    <path d="M45.179 29.9994C45.2055 34.4176 41.6453 38.0207 37.2271 38.0472L8.22759 38.2211C3.80939 38.2475 0.206265 34.6874 0.17978 30.2692L0.0479008 8.26956C0.0214154 3.85136 3.5816 0.248232 7.9998 0.221746L36.9993 0.0479054C41.4175 0.02142 45.0206 3.58161 45.0471 7.99981L45.179 29.9994Z"/>
    </mask>
    <path d="M45.179 29.9994C45.2055 34.4176 41.6453 38.0207 37.2271 38.0472L8.22759 38.2211C3.80939 38.2475 0.206265 34.6874 0.17978 30.2692L0.0479008 8.26956C0.0214154 3.85136 3.5816 0.248232 7.9998 0.221746L36.9993 0.0479054C41.4175 0.02142 45.0206 3.58161 45.0471 7.99981L45.179 29.9994Z" fill="#009951"/>
    <path d="M37.2271 38.0472L37.2211 37.0472L8.2216 37.2211L8.22759 38.2211L8.23359 39.221L37.2331 39.0472L37.2271 38.0472ZM0.17978 30.2692L1.17976 30.2632L1.04788 8.26356L0.0479008 8.26956L-0.952081 8.27555L-0.820202 30.2752L0.17978 30.2692ZM7.9998 0.221746L8.0058 1.22173L37.0053 1.04789L36.9993 0.0479054L36.9933 -0.952077L7.99381 -0.778236L7.9998 0.221746ZM45.0471 7.99981L44.0471 8.0058L44.179 30.0054L45.179 29.9994L46.179 29.9934L46.0471 7.99381L45.0471 7.99981ZM36.9993 0.0479054L37.0053 1.04789C40.8712 1.02471 44.0239 4.13988 44.0471 8.0058L45.0471 7.99981L46.0471 7.99381C46.0173 3.02334 41.9638 -0.981873 36.9933 -0.952077L36.9993 0.0479054ZM0.0479008 8.26956L1.04788 8.26356C1.02471 4.39764 4.13987 1.2449 8.0058 1.22173L7.9998 0.221746L7.99381 -0.778236C3.02333 -0.74844 -0.981877 3.30508 -0.952081 8.27555L0.0479008 8.26956ZM8.22759 38.2211L8.2216 37.2211C4.35567 37.2443 1.20294 34.1291 1.17976 30.2632L0.17978 30.2692L-0.820202 30.2752C-0.790406 35.2456 3.26311 39.2508 8.23359 39.221L8.22759 38.2211ZM37.2271 38.0472L37.2331 39.0472C42.2035 39.0174 46.2088 34.9639 46.179 29.9934L45.179 29.9994L44.179 30.0054C44.2022 33.8713 41.087 37.0241 37.2211 37.0472L37.2271 38.0472Z" fill="#2C2C2C" mask="url(#path-1-inside-1_72_159)"/>
    <path d="M21.9752 13.1382L22.8554 13.9966L19.2748 17.6204L28.6041 17.5644L28.6116 18.8144L19.2822 18.8704L22.906 22.4396L22.0362 23.3198L16.9149 18.2595L21.9752 13.1382Z" fill="#F5F5F5"/>
    </svg>
    