<svg width="45" height="38" viewBox="0 0 45 38" fill="none" xmlns="http://www.w3.org/2000/svg">
    <mask id="path-1-inside-1_6_651" fill="white">
    <path d="M0 8C0 3.58172 3.58172 0 8 0H37C41.4183 0 45 3.58172 45 8V30C45 34.4183 41.4183 38 37 38H8C3.58172 38 0 34.4183 0 30V8Z"/>
    </mask>
    <path d="M0 8C0 3.58172 3.58172 0 8 0H37C41.4183 0 45 3.58172 45 8V30C45 34.4183 41.4183 38 37 38H8C3.58172 38 0 34.4183 0 30V8Z" fill="#009951"/>
    <path d="M8 1H37V-1H8V1ZM44 8V30H46V8H44ZM37 37H8V39H37V37ZM1 30V8H-1V30H1ZM8 37C4.13401 37 1 33.866 1 30H-1C-1 34.9706 3.02944 39 8 39V37ZM44 30C44 33.866 40.866 37 37 37V39C41.9706 39 46 34.9706 46 30H44ZM37 1C40.866 1 44 4.13401 44 8H46C46 3.02944 41.9706 -1 37 -1V1ZM8 -1C3.02944 -1 -1 3.02944 -1 8H1C1 4.13401 4.13401 1 8 1V-1Z" fill="#2C2C2C" mask="url(#path-1-inside-1_6_651)"/>
    <path d="M23.1023 25L22.2273 24.1364L25.8295 20.5341H16.5V19.2841H25.8295L22.2273 15.6932L23.1023 14.8182L28.1932 19.9091L23.1023 25Z" fill="#F5F5F5"/>
    </svg>
    